<svg width="23" height="23" viewBox="0 0 23 23" fill="none" xmlns="http://www.w3.org/2000/svg">
<path d="M11.4997 0C5.15387 0 0 5.14252 0 11.4997C0 17.8456 5.14252 22.9995 11.4997 22.9995C17.8456 22.9995 22.9995 17.8569 22.9995 11.4997C22.9995 5.14252 17.8456 0 11.4997 0ZM16.3698 9.00226C16.5287 12.5328 13.895 16.4833 9.2293 16.4833C7.81028 16.4833 6.49343 16.0633 5.38092 15.3595C6.70912 15.5184 8.04867 15.1438 9.10442 14.3151C8.00326 14.2924 7.07239 13.5658 6.75453 12.5668C7.15185 12.6463 7.53783 12.6236 7.88974 12.5214C6.68642 12.283 5.84636 11.1932 5.86906 10.0239C6.20963 10.2169 6.5956 10.3305 7.00427 10.3418C5.88041 9.59257 5.56255 8.11679 6.22098 6.98157C7.45836 8.50276 9.30876 9.50175 11.3976 9.60392C11.0343 8.02597 12.2263 6.51613 13.8496 6.51613C14.5762 6.51613 15.2232 6.82264 15.6887 7.31079C16.2563 7.19726 16.8012 6.99292 17.2893 6.69777C17.0963 7.28808 16.699 7.77622 16.1882 8.09408C16.699 8.03732 17.1758 7.9011 17.6299 7.69676C17.2893 8.20761 16.8579 8.65034 16.3698 9.00226Z" fill="white"/>
</svg>
