<svg width="23" height="23" viewBox="0 0 23 23" fill="none" xmlns="http://www.w3.org/2000/svg">
<path d="M11.4997 0C5.15388 0 0 5.14252 0 11.4997C0 17.8456 5.14253 22.9995 11.4997 22.9995C17.8456 22.9995 22.9995 17.8569 22.9995 11.4997C22.9995 5.14252 17.8456 0 11.4997 0ZM14.701 6.98157C14.701 6.98157 13.6112 6.98157 13.1912 6.98157C12.6576 6.98157 12.5441 7.19726 12.5441 7.75352C12.5441 8.21896 12.5441 9.09307 12.5441 9.09307H14.701L14.4967 11.443H12.5441V18.4472H9.74015V11.4657H8.28707V9.09307H9.74015C9.74015 9.09307 9.74015 8.75251 9.74015 7.21997C9.74015 5.46038 10.6824 4.55221 12.7598 4.55221C13.1004 4.55221 14.701 4.55221 14.701 4.55221V6.98157Z" fill="white"/>
</svg>
