<svg width="23" height="23" viewBox="0 0 23 23" fill="none" xmlns="http://www.w3.org/2000/svg">
<path d="M11.4997 0.000488281C5.15387 0.000488281 0 5.14301 0 11.5002C0 17.8461 5.14252 22.9999 11.4997 22.9999C17.8456 22.9999 22.9995 17.8574 22.9995 11.5002C22.9995 5.14301 17.8456 0.000488281 11.4997 0.000488281ZM8.66169 16.62H6.27774V8.93463H8.66169V16.62ZM7.45836 7.92429C6.68641 7.92429 6.05069 7.28857 6.05069 6.50527C6.05069 5.72197 6.67506 5.08625 7.45836 5.08625C8.23031 5.08625 8.86603 5.72197 8.86603 6.50527C8.86603 7.28857 8.24166 7.92429 7.45836 7.92429ZM17.5845 16.62H15.2119C15.2119 16.62 15.2119 13.6912 15.2119 12.59C15.2119 11.4889 14.7919 10.8645 13.9177 10.8645C12.9642 10.8645 12.4647 11.5116 12.4647 12.59C12.4647 13.7706 12.4647 16.62 12.4647 16.62H10.1829V8.93463H12.4647V9.96768C12.4647 9.96768 13.1458 8.69623 14.7805 8.69623C16.4152 8.69623 17.5731 9.69522 17.5731 11.75C17.5845 13.8161 17.5845 16.62 17.5845 16.62Z" fill="white"/>
</svg>
